#!OML:ASF F:\VICON\USERDATA\INSTALL\rory3\rory3.ASF
:FULLY-SPECIFIED
:DEGREES
1033
root -5.40792 17.9678 0.654828 -179.53 166.885 -178.113
lowerback 6.42267 -1.88396 1.30861
upperback -1.90167 -2.27075 2.41734
thorax -5.53554 -1.12095 2.03268
lowerneck -26.5125 -8.64635 -8.37569
upperneck 18.84 -11.4502 10.3665
head 11.638 -4.47773 3.128
rclavicle 2.92089e-014 1.11319e-014
rhumerus 32.6576 -49.4676 -6.65093
rradius 72.6937
rwrist 37.2458
rhand -60.5583 3.16508
rfingers 7.12502
rthumb -32.6832 -23.9014
lclavicle 2.92089e-014 1.11319e-014
lhumerus -43.7133 1.22094 72.9338
lradius 47.4141
lwrist -11.5657
lhand -16.1843 22.0916
lfingers 7.12502
lthumb 10.0224 1131.83
rfemur -6.18893 0.610309 21.0249
rtibia 27.0409
rfoot -16.389 0.283334
rtoes 13.3795
lfemur -3.56429 -1.33072 -11.3193
ltibia 41.325
lfoot 3.5491 0.355175
ltoes -31.6797
1034
root -5.39538 17.9723 0.657764 -179.505 166.823 -178.132
lowerback 6.41899 -1.9207 1.21609
upperback -1.81051 -2.32925 2.43607
thorax -5.43187 -1.14703 2.10732
lowerneck -26.648 -8.62109 -8.36938
upperneck 18.7835 -11.3903 10.3348
head 11.6314 -4.45112 3.12384
rclavicle 1.02685e-014 -2.3059e-014
rhumerus 30.3956 -49.1329 -4.83024
rradius 74.582
rwrist 39.2465
rhand -62.686 5.72512
rfingers 7.12502
rthumb -34.705 -20.8993
lclavicle 1.02685e-014 -2.3059e-014
lhumerus -43.7415 1.17795 72.9589
lradius 47.6614
lwrist -11.4947
lhand -16.1785 22.0666
lfingers 7.12502
lthumb 10.028 1131.81
rfemur -6.14089 0.607896 21.0168
rtibia 26.9311
rfoot -16.4736 0.153757
rtoes 13.0601
lfemur -3.72045 -1.33796 -11.1956
ltibia 41.3967
lfoot 3.88589 -0.290462
ltoes -32.6279
1035
root -5.38211 17.9743 0.655774 -179.463 166.75 -178.204
lowerback 6.48198 -1.95661 1.22852
upperback -1.73949 -2.37471 2.46171
thorax -5.39158 -1.16966 2.13244
lowerneck -26.8779 -8.62165 -8.44447
upperneck 18.7696 -11.3402 10.3334
head 11.6663 -4.42656 3.14055
rclavicle 4.29107e-014 4.77083e-015
rhumerus 28.4215 -48.7346 -3.26661
rradius 76.0588
rwrist 40.7154
rhand -65.4982 9.56331
rfingers 7.12502
rthumb -37.3688 -16.4049
lclavicle 4.29107e-014 4.77083e-015
lhumerus -43.6572 1.34316 72.9454
lradius 47.7246
lwrist -11.6355
lhand -16.2848 22.0049
lfingers 7.12502
lthumb 9.92544 1131.75
rfemur -6.14699 0.619641 21.0633
rtibia 26.8478
rfoot -16.4866 0.0437198
rtoes 12.8931
lfemur -3.92547 -1.43583 -11.0177
ltibia 41.4807
lfoot 3.80915 -0.800546
ltoes -33.4202
1036
root -5.36792 17.9758 0.652943 -179.431 166.654 -178.226
lowerback 6.65915 -1.99089 1.17615
upperback -1.76595 -2.41776 2.49194
thorax -5.51561 -1.18783 2.20671
lowerneck -26.795 -8.60419 -8.54355
upperneck 18.6404 -11.2596 10.3024
head 11.5972 -4.40813 3.16126
rclavicle 4.95502e-014 9.54166e-015
rhumerus 26.8427 -48.3872 -2.07194
rradius 77.2253
rwrist 42.6679
rhand -67.777 12.9915
rfingers 7.12502
rthumb -39.5192 -12.3778
lclavicle 4.95502e-014 9.54166e-015
lhumerus -43.8177 1.19281 73.0736
lradius 47.9477
lwrist -11.469
lhand -16.3301 22.0607
lfingers 7.12502
lthumb 9.88174 1131.81
rfemur -6.15063 0.642453 21.0519
rtibia 26.7723
rfoot -16.5119 -0.0954501
rtoes 12.7595
lfemur -4.11434 -1.49543 -10.8748
ltibia 41.5683
lfoot 3.66172 -1.3557
ltoes -33.7389
1037
root -5.35358 17.9772 0.652327 -179.359 166.532 -178.225
lowerback 6.72999 -2.02022 1.04673
upperback -1.77452 -2.46364 2.54143
thorax -5.55602 -1.20499 2.33946
lowerneck -26.6872 -8.55962 -8.66694
upperneck 18.484 -11.1285 10.263
head 11.5088 -4.37129 3.19296
rclavicle 2.70285e-014 3.18055e-015
rhumerus 25.4093 -48.1932 -0.867145
rradius 78.0606
rwrist 44.5598
rhand -69.3935 14.3823
rfingers 7.12502
rthumb -41.0395 -10.5215
lclavicle 2.70285e-014 3.18055e-015
lhumerus -44.0522 0.990495 73.2684
lradius 48.3249
lwrist -11.1617
lhand -16.3163 22.0422
lfingers 7.12502
lthumb 9.89503 1131.79
rfemur -6.1751 0.669451 21.0108
rtibia 26.7047
rfoot -16.5662 -0.183236
rtoes 13.0157
lfemur -4.33803 -1.45611 -10.7314
ltibia 41.6429
lfoot 4.27228 -2.15268
ltoes -33.795
1038
root -5.33741 17.9795 0.654952 -179.332 166.424 -178.343
lowerback 6.74299 -2.07357 1.07278
upperback -1.74869 -2.53028 2.58726
thorax -5.53347 -1.23811 2.37991
lowerneck -26.6729 -8.43386 -8.72794
upperneck 18.39 -10.9086 10.2284
head 11.4482 -4.28467 3.23268
rclavicle -1.11195e-014 3.97569e-015
rhumerus 24.4025 -48.1546 -0.0770245
rradius 78.377
rwrist 46.2847
rhand -70.6918 13.5562
rfingers 7.12502
rthumb -42.2572 -10.9471
lclavicle -1.11195e-014 3.97569e-015
lhumerus -44.2233 1.05298 73.3018
lradius 48.5817
lwrist -11.0067
lhand -16.4486 21.7818
lfingers 7.12502
lthumb 9.76736 1131.54
rfemur -6.17132 0.647325 21.0852
rtibia 26.6452
rfoot -16.629 -0.219185
rtoes 13.1484
lfemur -4.5092 -1.42259 -10.4537
ltibia 41.6826
lfoot 5.14824 -3.04342
ltoes -32.8157
1039
root -5.31494 17.9817 0.6557 -179.23 166.337 -178.275
lowerback 6.70827 -2.14398 0.992191
upperback -1.71335 -2.63335 2.58714
thorax -5.46973 -1.28697 2.43358
lowerneck -26.6925 -8.30759 -8.73222
upperneck 18.2839 -10.6797 10.0949
head 11.3774 -4.20123 3.22731
rclavicle -1.70582e-014 7.95139e-015
rhumerus 23.8507 -48.2238 0.347454
rradius 78.1718
rwrist 47.351
rhand -71.52 11.4536
rfingers 7.12502
rthumb -43.0323 -12.7809
lclavicle -1.70582e-014 7.95139e-015
lhumerus -44.3763 1.25855 73.2893
lradius 48.7863
lwrist -10.9757
lhand -16.5061 21.5458
lfingers 7.12502
lthumb 9.71192 1131.3
rfemur -6.19639 0.527623 20.9182
rtibia 26.5746
rfoot -16.6065 -0.164509
rtoes 13.0091
lfemur -4.69001 -1.41921 -10.4076
ltibia 41.7115
lfoot 5.63793 -3.84683
ltoes -31.8147
1040
root -5.29099 17.9859 0.650092 -179.141 166.263 -178.151
lowerback 6.81333 -2.191 0.892307
upperback -1.72246 -2.70426 2.54995
thorax -5.53381 -1.31882 2.46412
lowerneck -26.6372 -8.21581 -8.66261
upperneck 18.2115 -10.5127 9.86336
head 11.3015 -4.15426 3.16309
rclavicle -1.85242e-014 1.59028e-015
rhumerus 23.2641 -48.2548 0.865096
rradius 77.5523
rwrist 47.0863
rhand -71.6047 9.29339
rfingers 7.12502
rthumb -43.1115 -14.913
lclavicle -1.85242e-014 1.59028e-015
lhumerus -44.535 1.33484 73.2993
lradius 48.963
lwrist -11.0012
lhand -16.3877 21.477
lfingers 7.12502
lthumb 9.82614 1131.23
rfemur -6.21611 0.406527 20.6801
rtibia 26.5017
rfoot -16.5744 -0.145203
rtoes 12.853
lfemur -4.83764 -1.48728 -10.4396
ltibia 41.7427
lfoot 5.84718 -4.45619
ltoes -31.221
1041
root -5.27199 17.9873 0.639073 -179.072 166.095 -178.296
lowerback 7.00727 -2.2565 0.96617
upperback -1.8241 -2.77468 2.60036
thorax -5.74994 -1.35297 2.49698
lowerneck -26.5521 -8.09428 -8.51503
upperneck 18.2126 -10.3267 9.56217
head 11.2376 -4.10134 3.06548
rclavicle -1.47846e-014 -5.56597e-015
rhumerus 22.8018 -48.3337 1.27393
rradius 76.6093
rwrist 45.8691
rhand -70.9787 8.40131
rfingers 7.12502
rthumb -42.5259 -16.01
lclavicle -1.47846e-014 -5.56597e-015
lhumerus -44.7912 1.30061 73.3406
lradius 49.1467
lwrist -10.9615
lhand -16.2531 21.3939
lfingers 7.12502
lthumb 9.95602 1131.14
rfemur -6.32628 0.27357 20.7655
rtibia 26.4721
rfoot -16.5456 -0.247035
rtoes 12.499
lfemur -5.10682 -1.55597 -10.1317
ltibia 41.7679
lfoot 5.88192 -5.17126
ltoes -30.5633
